<svg xmlns="http://www.w3.org/2000/svg" width="30" height="24.96" viewBox="0 0 30 24.96">
  <title>Toast</title>
  <g>
    <path d="M9.46,15.381a4.477,4.477,0,0,1-2.249-.607h0A4.51,4.51,0,0,1,5.559,8.611L10.241.5A1,1,0,0,1,11.608.134l6.083,3.512a1,1,0,0,1,.366,1.366l-4.683,8.111a4.482,4.482,0,0,1-2.739,2.1A4.55,4.55,0,0,1,9.46,15.381ZM11.474,2.367,7.291,9.611a2.511,2.511,0,0,0,.92,3.431h0a2.514,2.514,0,0,0,3.431-.919l4.182-7.245Z" fill="currentColor"></path>
    <path d="M3.027,23.018a1,1,0,0,1-.865-1.5l4.682-8.11a1,1,0,0,1,1.733,1l-4.683,8.11A1,1,0,0,1,3.027,23.018Z" fill="currentColor"></path>
    <path d="M5.054,24.189a1.006,1.006,0,0,1-.5-.133L.5,21.714a1,1,0,0,1,1-1.732l4.055,2.341a1,1,0,0,1-.5,1.866Z" fill="currentColor"></path>
    <path d="M14.42,7.968a.992.992,0,0,1-.5-.134L9.865,5.493a1,1,0,1,1,1-1.732L14.921,6.1a1,1,0,0,1-.5,1.866Z" fill="currentColor"></path>
    <path d="M24.448,15.386a4.516,4.516,0,0,1-4.433-3.73L18.389,2.433a1,1,0,0,1,.81-1.159L26.116.055a1,1,0,0,1,1.159.811L28.9,10.089a4.512,4.512,0,0,1-3.66,5.227A4.63,4.63,0,0,1,24.448,15.386ZM20.531,3.07l1.454,8.238a2.512,2.512,0,0,0,2.91,2.038,2.516,2.516,0,0,0,2.038-2.91L25.479,2.2Z" fill="currentColor"></path>
    <path d="M26.694,24.554a1,1,0,0,1-.984-.826l-1.626-9.223a1,1,0,1,1,1.969-.348l1.626,9.223a1,1,0,0,1-.811,1.159A1.031,1.031,0,0,1,26.694,24.554Z" fill="currentColor"></path>
    <path d="M24.388,24.96a1,1,0,0,1-.173-1.985l4.611-.813a1,1,0,0,1,.348,1.97l-4.611.813A1.043,1.043,0,0,1,24.388,24.96Z" fill="currentColor"></path>
    <path d="M21.135,6.515a1,1,0,0,1-.173-1.985l4.611-.813a1,1,0,1,1,.348,1.969L21.31,6.5A.95.95,0,0,1,21.135,6.515Z" fill="currentColor"></path>
  </g>
</svg>
