<svg xmlns="http://www.w3.org/2000/svg" width="29.989" height="22.367" viewBox="0 0 29.989 22.367">
  <title>Wedding Ring</title>
  <g>
    <path d="M20.989,22.367a9,9,0,1,1,9-9A9.01,9.01,0,0,1,20.989,22.367Zm0-16a7,7,0,1,0,7,7A7.008,7.008,0,0,0,20.989,6.367Z" fill="currentColor"></path>
    <path d="M8.989,21.367a8,8,0,1,1,8-8A8.009,8.009,0,0,1,8.989,21.367Zm0-14a6,6,0,1,0,6,6A6.007,6.007,0,0,0,8.989,7.367Z" fill="currentColor"></path>
    <path d="M5.632,8.225a1,1,0,0,1-.414-.09L.667,6.063a1,1,0,0,1-.585-.874L0,2.955a1,1,0,0,1,.52-.914L4.031.123a1,1,0,0,1,1.05.056L6.918,1.455a1,1,0,0,1,.419.964L6.622,7.368a1,1,0,0,1-.99.857ZM2.058,4.5,4.833,5.762l.436-3.017-.822-.571L2.022,3.5Z" fill="currentColor"></path>
  </g>
</svg>
